<svg width="98" height="59" viewBox="0 0 98 59" fill="none" xmlns="http://www.w3.org/2000/svg">
<g clip-path="url(#clip0_0_1)">
<path d="M35.3327 6V32.0566L42.5202 35.3362V32.748C40.4983 32.4025 38.4714 31.8207 36.9022 29.8644L38.1151 28.4747C39.2067 29.8354 40.7235 30.3291 42.4528 30.6633L40.1 7.29229C38.5406 6.93726 36.9407 6.54785 35.3327 6ZM71.0119 6.00322C65.156 7.8715 58.5816 6.01418 53.8319 13.6102V36.0412C55.6104 32.9098 57.9147 31.6513 60.1857 31.0428C63.2327 30.2261 66.1316 30.2734 68.4064 28.0752L69.4621 29.636C66.6539 32.3498 63.3302 32.2556 60.5533 32.9998C57.9214 33.7052 55.7037 34.8937 54.0621 39.7875L71.0118 32.0567L71.0119 6.00322ZM41.731 6.67461L44.1933 31.1837L44.1987 31.2441V54.5446L45.9902 50.3251L47.8291 60V33.2652L45.3025 7.55762L41.731 6.67461ZM47.1638 9.27959L49.4632 32.6741C49.8475 32.9263 50.2138 33.216 50.5582 33.5403C51.1379 34.0878 51.6734 34.7606 52.1529 35.5781V13.1436C50.7607 11.2664 49.0622 10.1006 47.1638 9.27959ZM32 9.37047V35.1316L32.5503 35.3733L42.5203 39.754V37.6157L33.679 33.7317V9.37047H32ZM72.6627 9.37369V33.7316L53.1722 42.2921L49.5084 40.6839V44.7961C51.5937 45.6587 54.7263 45.5279 57.2574 44.5243V42.6376L73.7914 35.3732L74.3417 35.1315V9.3738L72.6627 9.37369ZM49.5082 35.1047V38.5221L51.9847 39.6532C51.3522 37.4138 50.4964 36.0374 49.5195 35.1147C49.5159 35.1114 49.5119 35.1081 49.5082 35.1047Z" fill="#0A27BF"/>
</g>
<path d="M5.23 51.112C5.23 50.72 5.076 50.454 4.768 50.314C4.46933 50.1647 3.96533 50.09 3.256 50.09V52.232C3.69467 52.232 4.04933 52.1993 4.32 52.134C4.6 52.0687 4.81933 51.9567 4.978 51.798C5.146 51.63 5.23 51.4013 5.23 51.112ZM5.412 54.85C5.412 54.542 5.33267 54.304 5.174 54.136C5.01533 53.968 4.78667 53.8513 4.488 53.786C4.18933 53.7113 3.77867 53.674 3.256 53.674V56.096C3.984 56.096 4.52533 56.0073 4.88 55.83C5.23467 55.6433 5.412 55.3167 5.412 54.85ZM7.134 53.016C8.002 53.5293 8.436 54.2153 8.436 55.074C8.436 55.4473 8.36133 55.8067 8.212 56.152C8.072 56.488 7.85733 56.796 7.568 57.076C7.288 57.356 6.91467 57.58 6.448 57.748C5.98133 57.9067 5.454 57.986 4.866 57.986H1.618C1.04867 57.986 0.638 57.8413 0.386 57.552C0.143333 57.2627 0.0220001 56.7447 0.0220001 55.998V50.076C0.0220001 49.7587 0.0780001 49.4787 0.19 49.236C0.302 48.9933 0.479333 48.7973 0.722 48.648C0.974 48.4987 1.27267 48.424 1.618 48.424H4.824C5.75733 48.4333 6.532 48.69 7.148 49.194C7.77333 49.6887 8.086 50.328 8.086 51.112C8.086 51.364 8.06267 51.588 8.016 51.784C7.97867 51.9707 7.918 52.1387 7.834 52.288C7.75 52.4373 7.652 52.568 7.54 52.68C7.428 52.792 7.29267 52.904 7.134 53.016ZM14.6358 56.04C14.9531 56.04 15.2238 55.9 15.4478 55.62C15.6811 55.34 15.8445 54.9947 15.9378 54.584C16.0405 54.1733 16.0918 53.7347 16.0918 53.268C16.0918 52.792 16.0405 52.344 15.9378 51.924C15.8351 51.4947 15.6671 51.1307 15.4338 50.832C15.2098 50.5333 14.9438 50.384 14.6358 50.384C14.3371 50.384 14.0758 50.5333 13.8518 50.832C13.6278 51.1307 13.4598 51.4947 13.3478 51.924C13.2358 52.3533 13.1798 52.8013 13.1798 53.268C13.1798 53.7347 13.2311 54.1733 13.3338 54.584C13.4458 54.9947 13.6138 55.34 13.8378 55.62C14.0711 55.9 14.3371 56.04 14.6358 56.04ZM17.1138 57.538C16.3765 57.902 15.5458 58.084 14.6218 58.084C13.7071 58.084 12.8811 57.902 12.1438 57.538C11.4158 57.1647 10.8325 56.6093 10.3938 55.872C9.95515 55.1347 9.73581 54.2667 9.73581 53.268C9.73581 51.756 10.1885 50.5567 11.0938 49.67C12.0085 48.774 13.1891 48.326 14.6358 48.326C16.0825 48.326 17.2631 48.774 18.1778 49.67C19.0925 50.5567 19.5498 51.756 19.5498 53.268C19.5498 54.2667 19.3258 55.1347 18.8778 55.872C18.4391 56.6093 17.8511 57.1647 17.1138 57.538ZM25.9014 56.04C26.2188 56.04 26.4894 55.9 26.7134 55.62C26.9468 55.34 27.1101 54.9947 27.2034 54.584C27.3061 54.1733 27.3574 53.7347 27.3574 53.268C27.3574 52.792 27.3061 52.344 27.2034 51.924C27.1008 51.4947 26.9328 51.1307 26.6994 50.832C26.4754 50.5333 26.2094 50.384 25.9014 50.384C25.6028 50.384 25.3414 50.5333 25.1174 50.832C24.8934 51.1307 24.7254 51.4947 24.6134 51.924C24.5014 52.3533 24.4454 52.8013 24.4454 53.268C24.4454 53.7347 24.4968 54.1733 24.5994 54.584C24.7114 54.9947 24.8794 55.34 25.1034 55.62C25.3368 55.9 25.6028 56.04 25.9014 56.04ZM28.3794 57.538C27.6421 57.902 26.8114 58.084 25.8874 58.084C24.9728 58.084 24.1468 57.902 23.4094 57.538C22.6814 57.1647 22.0981 56.6093 21.6594 55.872C21.2208 55.1347 21.0014 54.2667 21.0014 53.268C21.0014 51.756 21.4541 50.5567 22.3594 49.67C23.2741 48.774 24.4548 48.326 25.9014 48.326C27.3481 48.326 28.5288 48.774 29.4434 49.67C30.3581 50.5567 30.8154 51.756 30.8154 53.268C30.8154 54.2667 30.5914 55.1347 30.1434 55.872C29.7048 56.6093 29.1168 57.1647 28.3794 57.538ZM38.9451 53.394C39.4211 53.45 39.8551 53.6927 40.2471 54.122C40.6391 54.542 40.8351 55.0833 40.8351 55.746C40.8351 56.39 40.7884 56.8707 40.6951 57.188C40.6017 57.496 40.4431 57.7107 40.2191 57.832C39.9951 57.944 39.6544 58 39.1971 58C38.8331 58 38.5297 57.9487 38.2871 57.846C38.0537 57.7433 37.8811 57.594 37.7691 57.398C37.6571 57.1927 37.6011 56.9313 37.6011 56.614C37.6011 56.2033 37.5824 55.8627 37.5451 55.592C37.5171 55.312 37.4751 55.0927 37.4191 54.934C37.3724 54.766 37.2977 54.64 37.1951 54.556C37.0924 54.472 36.9897 54.4207 36.8871 54.402C36.7937 54.374 36.6631 54.36 36.4951 54.36H35.7531V55.914C35.7531 56.6607 35.6084 57.1973 35.3191 57.524C35.0297 57.8413 34.6051 58 34.0451 58C33.5037 58 33.1024 57.8507 32.8411 57.552C32.5891 57.244 32.4631 56.7307 32.4631 56.012V50.174C32.4631 49.586 32.5704 49.1473 32.7851 48.858C33.0091 48.5593 33.3684 48.41 33.8631 48.41C34.1524 48.41 34.3904 48.4287 34.5771 48.466C34.7731 48.5033 34.9597 48.5733 35.1371 48.676C35.3237 48.7693 35.4591 48.9233 35.5431 49.138C35.6364 49.3433 35.6831 49.6093 35.6831 49.936C35.6831 50.2253 35.6784 50.552 35.6691 50.916C35.6691 51.2707 35.6691 51.5227 35.6691 51.672C35.6691 51.7933 35.6971 51.896 35.7531 51.98C35.8184 52.064 35.9117 52.134 36.0331 52.19C36.1637 52.2367 36.3224 52.26 36.5091 52.26C36.9104 52.26 37.1764 52.1013 37.3071 51.784C37.4471 51.4667 37.5171 50.818 37.5171 49.838C37.5171 49.3527 37.6477 48.9933 37.9091 48.76C38.1704 48.5267 38.5904 48.41 39.1691 48.41C39.7944 48.41 40.2144 48.5313 40.4291 48.774C40.6437 49.0167 40.7511 49.4507 40.7511 50.076C40.7511 51.1027 40.5691 51.9007 40.2051 52.47C39.8504 53.03 39.4304 53.338 38.9451 53.394Z" fill="#045DE3"/>
<path d="M53.9638 48.312C55.0744 48.312 56.0218 48.5407 56.8058 48.998C57.5898 49.4553 57.9818 49.9407 57.9818 50.454C57.9818 50.594 57.9491 50.7153 57.8838 50.818C57.8278 50.9113 57.7531 50.9813 57.6598 51.028C57.5758 51.0653 57.4824 51.084 57.3798 51.084C57.2118 51.084 56.9598 51 56.6238 50.832C56.2878 50.6547 55.9144 50.482 55.5038 50.314C55.0931 50.1367 54.7151 50.048 54.3698 50.048C53.8191 50.048 53.5438 50.272 53.5438 50.72C53.5438 50.86 53.5858 50.9953 53.6698 51.126C53.7631 51.2473 53.9078 51.378 54.1038 51.518C54.2998 51.6487 54.4911 51.7653 54.6778 51.868C54.8644 51.9707 55.1211 52.1107 55.4478 52.288C55.7744 52.456 56.0498 52.6053 56.2738 52.736C56.9924 53.1467 57.4964 53.5387 57.7858 53.912C58.0751 54.2853 58.2198 54.7147 58.2198 55.2C58.2198 57.132 56.9178 58.098 54.3138 58.098C53.8004 58.098 53.3011 58.0467 52.8158 57.944C52.3398 57.8413 51.9198 57.706 51.5558 57.538C51.2011 57.37 50.8838 57.1833 50.6038 56.978C50.3331 56.7727 50.1278 56.5627 49.9878 56.348C49.8478 56.1333 49.7778 55.9327 49.7778 55.746C49.7778 55.5407 49.8431 55.368 49.9738 55.228C50.1138 55.0787 50.3144 55.004 50.5758 55.004C50.7718 55.004 51.2431 55.13 51.9898 55.382C52.7364 55.6247 53.3384 55.746 53.7958 55.746C54.2158 55.746 54.4258 55.6013 54.4258 55.312C54.4258 55.228 54.4071 55.1533 54.3698 55.088C54.3418 55.0133 54.2858 54.9433 54.2018 54.878C54.1271 54.8033 54.0384 54.738 53.9358 54.682C53.8424 54.6167 53.7071 54.5373 53.5298 54.444C53.3618 54.3507 53.1891 54.2573 53.0118 54.164C52.8438 54.0707 52.6198 53.9493 52.3398 53.8C52.0598 53.6507 51.7891 53.5013 51.5278 53.352C51.1824 53.156 50.8838 52.9133 50.6318 52.624C50.3891 52.3347 50.2118 52.05 50.0998 51.77C49.9878 51.4807 49.9318 51.2147 49.9318 50.972C49.9318 50.188 50.2818 49.5487 50.9818 49.054C51.6818 48.5593 52.6758 48.312 53.9638 48.312ZM65.0735 55.9C65.0735 56.432 65.0082 56.8567 64.8775 57.174C64.7469 57.482 64.5649 57.6967 64.3315 57.818C64.1075 57.9393 63.8089 58 63.4355 58C62.8849 58 62.4835 57.8553 62.2315 57.566C61.9889 57.2673 61.8629 56.7447 61.8535 55.998L61.8255 50.832H60.6355C60.0475 50.832 59.6042 50.7387 59.3055 50.552C59.0162 50.3653 58.8715 50.034 58.8715 49.558C58.8715 49.2687 58.9275 49.04 59.0395 48.872C59.1609 48.704 59.3382 48.5873 59.5715 48.522C59.8049 48.4473 60.1175 48.41 60.5095 48.41H66.5015C67.0242 48.41 67.4022 48.5033 67.6355 48.69C67.8689 48.8767 67.9855 49.1987 67.9855 49.656C67.9855 49.964 67.9155 50.2067 67.7755 50.384C67.6449 50.552 67.4675 50.6687 67.2435 50.734C67.0195 50.7993 66.7302 50.832 66.3755 50.832H65.0735V55.9ZM73.3702 56.04C73.6875 56.04 73.9582 55.9 74.1822 55.62C74.4155 55.34 74.5789 54.9947 74.6722 54.584C74.7749 54.1733 74.8262 53.7347 74.8262 53.268C74.8262 52.792 74.7749 52.344 74.6722 51.924C74.5695 51.4947 74.4015 51.1307 74.1682 50.832C73.9442 50.5333 73.6782 50.384 73.3702 50.384C73.0715 50.384 72.8102 50.5333 72.5862 50.832C72.3622 51.1307 72.1942 51.4947 72.0822 51.924C71.9702 52.3533 71.9142 52.8013 71.9142 53.268C71.9142 53.7347 71.9655 54.1733 72.0682 54.584C72.1802 54.9947 72.3482 55.34 72.5722 55.62C72.8055 55.9 73.0715 56.04 73.3702 56.04ZM75.8482 57.538C75.1109 57.902 74.2802 58.084 73.3562 58.084C72.4415 58.084 71.6155 57.902 70.8782 57.538C70.1502 57.1647 69.5669 56.6093 69.1282 55.872C68.6895 55.1347 68.4702 54.2667 68.4702 53.268C68.4702 51.756 68.9229 50.5567 69.8282 49.67C70.7429 48.774 71.9235 48.326 73.3702 48.326C74.8169 48.326 75.9975 48.774 76.9122 49.67C77.8269 50.5567 78.2842 51.756 78.2842 53.268C78.2842 54.2667 78.0602 55.1347 77.6122 55.872C77.1735 56.6093 76.5855 57.1647 75.8482 57.538ZM85.2238 51.196C85.2238 50.748 85.0605 50.44 84.7338 50.272C84.4071 50.104 83.8565 50.02 83.0818 50.02V52.442C83.8098 52.442 84.3465 52.3533 84.6918 52.176C85.0465 51.9893 85.2238 51.6627 85.2238 51.196ZM83.0818 55.9C83.0818 57.3 82.5358 58 81.4438 58C80.8931 58 80.4871 57.8553 80.2258 57.566C79.9738 57.2673 79.8478 56.7447 79.8478 55.998V50.09C79.8478 49.5487 79.9925 49.138 80.2818 48.858C80.5805 48.5687 80.9678 48.424 81.4438 48.424H84.3838C85.5318 48.424 86.4605 48.6947 87.1698 49.236C87.8791 49.768 88.2338 50.454 88.2338 51.294C88.2338 51.9287 88.0985 52.428 87.8278 52.792C87.5665 53.1467 87.1418 53.408 86.5538 53.576C87.0018 53.604 87.4171 53.8233 87.7998 54.234C88.1825 54.6353 88.3738 55.1393 88.3738 55.746C88.3738 56.362 88.3131 56.838 88.1918 57.174C88.0798 57.5007 87.9165 57.72 87.7018 57.832C87.4871 57.944 87.1838 58 86.7918 58C86.2411 58 85.8351 57.888 85.5738 57.664C85.3218 57.4307 85.1958 57.0807 85.1958 56.614C85.1958 56.0353 85.1398 55.592 85.0278 55.284C84.9158 54.9667 84.7711 54.7613 84.5938 54.668C84.4165 54.5747 84.1691 54.528 83.8518 54.528L83.0818 54.542V55.9ZM95.678 52.316C96.1727 52.316 96.518 52.3953 96.714 52.554C96.9193 52.7127 97.022 52.9833 97.022 53.366C97.022 53.6833 96.9007 53.912 96.658 54.052C96.4247 54.1827 96.056 54.248 95.552 54.248H93.284V55.732L96.322 55.746C96.8447 55.746 97.218 55.8253 97.442 55.984C97.6753 56.1333 97.792 56.404 97.792 56.796C97.792 57.244 97.6567 57.5567 97.386 57.734C97.1247 57.9113 96.7233 58 96.182 58H91.646C91.0953 58 90.6893 57.8553 90.428 57.566C90.176 57.2673 90.05 56.7447 90.05 55.998V50.09C90.05 48.97 90.582 48.41 91.646 48.41H96.182C96.7233 48.41 97.1247 48.494 97.386 48.662C97.6567 48.83 97.792 49.1333 97.792 49.572C97.792 49.9827 97.6753 50.272 97.442 50.44C97.218 50.5987 96.8447 50.678 96.322 50.678H93.27V52.316H95.678Z" fill="#81006C"/>
<defs>
<clipPath id="clip0_0_1">
<rect width="46" height="55" fill="white" transform="translate(32)"/>
</clipPath>
</defs>
</svg>
