<svg fill="none" height="33" viewBox="0 0 88 33" width="88" xmlns="http://www.w3.org/2000/svg"><g fill="#999"><path clip-rule="evenodd" d="m14 30.5234c7.732 0 14-6.268 14-14 0-7.73195-6.268-13.99996-14-13.99996-7.73199 0-14 6.26801-14 13.99996 0 7.732 6.26801 14 14 14zm1.3333-24.38945c.9341-.30986 1.94.21129 2.2256 1.15314l1.1352 3.74331c.6755-.0329 1.9048.0246 2.5744.48.5262.3579 2.4101 2.3573 4.0949 4.1455 1.0375 1.1012 1.9996 2.1223 2.5227 2.6306-.2804 2.2306-1.0856 4.2978-2.288 6.0742-.8519-.2156-1.5946-.3176-2.1877-.3642-1.1578-.0909-1.6935-.1817-1.939-.5189-.1803.1737-.4007.3112-.6531.3966l-6.0057 2.0312c-.9305.3147-1.9377-.198-2.2309-1.1355l-.6189-1.9788-.0059.0034-7.75909-8.0142c-.70244-.7255-.64671-1.8934.12163-2.5487l3.99084-3.40396c.16677-.23841.39387-.43693.66809-.56985l.05923-.05051.00617.02046c.04829-.02101.09794-.04002.14887-.05692zm3.5009 10.52695h-2.3083c-.0506.0086-.1002.0168-.1489.0247-.8346.1366-1.381.2261-1.3809 1.8482.0001 1.2584 1.0709 1.5608 1.9888 1.5608.5707 0 2.0877.3017 3.1537.8676l.3583 1.1817c.0392.1291-.0313.2661-.1591.3093l-6.0058 2.0312c-.1329.045-.2768-.0283-.3187-.1622l-3.2497-10.3911-1.25861-4.17391c.02326-.07416.08066-.13636.15991-.16265l6.1406-2.03687c.1335-.04427.2772.03018.318.16473zm-9.50447-2.2894-1.09661-3.5065-2.94026 2.5078c-.10977.0937-.11773.2605-.01738.3641l5.61032 5.7948zm7.17417-.0985c0 1.2426-1.0074 2.25-2.25 2.25s-2.25-1.0074-2.25-2.25c0-1.2427 1.0074-2.2501 2.25-2.2501s2.25 1.0074 2.25 2.2501z" fill-rule="evenodd"/><path d="m39.3318 14.6916c1.944 0 3.18-1.356 3.312-2.94h-.9c-.144 1.152-.912 2.16-2.424 2.16-1.716 0-2.544-1.2-2.544-2.844v-1.48803c0-1.644.828-2.844 2.544-2.844 1.512 0 2.28 1.008 2.424 2.16h.9c-.132-1.584-1.368-2.94-3.312-2.94-2.316 0-3.492 1.572-3.492 3.66v1.41603c0 2.088 1.176 3.66 3.492 3.66z"/><path d="m51.3099 10.9956v-1.34403c0-2.028-1.176-3.696-3.528-3.696s-3.528 1.668-3.528 3.696v1.34403c0 2.028 1.176 3.696 3.528 3.696s3.528-1.668 3.528-3.696zm-3.528 2.916c-1.788 0-2.592-1.284-2.592-2.868v-1.44003c0-1.584.804-2.868 2.592-2.868s2.592 1.284 2.592 2.868v1.44003c0 1.584-.804 2.868-2.592 2.868z"/><path d="m53.2364 6.12357v8.40003h3.156c2.136 0 3.312-1.356 3.312-3.228v-1.94403c0-1.872-1.176-3.228-3.312-3.228zm3.024 7.63203h-2.1v-6.86403h2.1c1.656 0 2.52.996 2.52 2.46v1.94403c0 1.464-.864 2.46-2.52 2.46z"/><path d="m39.9914 18.1236h-1.704l-3.012 8.4h1.668l.564-1.764h3.264l.564 1.764h1.668zm-.852 1.512 1.2 3.792h-2.412z"/><path d="m48.7709 20.2836h-1.632l-1.344 4.572-1.344-4.572h-1.632l2.124 6.24h1.704z"/><path d="m51.4503 26.6676c.72 0 1.512-.3 1.8-.72v.576h1.572v-3.984c0-1.452-1.068-2.4-2.628-2.4-1.344 0-2.316.648-2.676 1.86h1.512c.168-.336.516-.588 1.08-.588.672 0 1.08.432 1.08 1.008v.852c-.288-.24-.84-.528-1.584-.528-1.5 0-2.52.624-2.52 1.98 0 1.212.96 1.944 2.364 1.944zm.42-1.08c-.684 0-1.2-.336-1.2-.912s.48-.888 1.248-.888c.732 0 1.272.324 1.272.876 0 .528-.6.924-1.32.924z"/><path d="m56.4058 26.5236h1.632v-6.24h-1.632zm-.132-7.872c0 .54.396.948.948.948s.948-.408.948-.948-.396-.948-.948-.948-.948.408-.948.948z"/><path d="m59.7222 26.5236h1.632v-8.76h-1.632z"/><path d="m65.1026 26.6676c.72 0 1.512-.3 1.8-.72v.576h1.572v-3.984c0-1.452-1.068-2.4-2.628-2.4-1.344 0-2.316.648-2.676 1.86h1.512c.168-.336.516-.588 1.08-.588.672 0 1.08.432 1.08 1.008v.852c-.288-.24-.84-.528-1.584-.528-1.5 0-2.52.624-2.52 1.98 0 1.212.96 1.944 2.364 1.944zm.42-1.08c-.684 0-1.2-.336-1.2-.912s.48-.888 1.248-.888c.732 0 1.272.324 1.272.876 0 .528-.6.924-1.32.924z"/><path d="m73.4301 26.6676c1.68 0 2.628-1.272 2.628-2.748v-1.032c0-1.5-.936-2.748-2.616-2.748-.828 0-1.452.372-1.788.84v-3.216h-1.632v8.76h1.56v-.744c.288.504.948.888 1.848.888zm-.396-1.32c-.828 0-1.38-.624-1.38-1.5v-.912c0-.948.624-1.476 1.368-1.476.924 0 1.404.624 1.404 1.5v.888c0 .828-.444 1.5-1.392 1.5z"/><path d="m77.4292 26.5236h1.632v-8.76h-1.632z"/><path d="m83.3376 26.6676c1.38 0 2.496-.828 2.712-1.968h-1.428c-.156.432-.588.792-1.284.792-.948 0-1.32-.636-1.32-1.368v-.156h4.08v-1.092c0-1.5-.936-2.736-2.784-2.736-1.872 0-2.88 1.2-2.88 2.892v.852c0 1.752 1.14 2.784 2.904 2.784zm-1.32-3.912c0-.84.36-1.464 1.296-1.464.876 0 1.284.588 1.284 1.368v.156h-2.58z"/></g></svg>