<svg fill="none" height="33" viewBox="0 0 79 33" width="79" xmlns="http://www.w3.org/2000/svg" xmlns:xlink="http://www.w3.org/1999/xlink"><clipPath id="a"><path d="m.599609.523438h78v32h-78z"/></clipPath><clipPath id="b"><path d="m-3.40039.523438h32v32h-32z"/></clipPath><g clip-path="url(#a)" fill="#999"><g clip-path="url(#b)" clip-rule="evenodd" fill-rule="evenodd"><path d="m14.0444 1.58862 1.4507 1.09996c.3968.3011.8161.45473 1.3095.48271l1.8116.10188c1.083.06102 1.9644.80903 2.2109 1.87905l.415 1.787c.1119.4889.334.87858.6974 1.22219l1.3208 1.25617c.7939.75242.9934 1.89812.5024 2.87882l-.8185 1.6382c-.2221.4476-.3003.8915-.2422 1.3896l.2151 1.8228c.1299 1.0913-.4438 2.0988-1.444 2.5314l-1.6662.7224c-.4551.1977-.796.487-1.0673.9071l-.9932 1.536c-.5942.9198-1.675 1.3177-2.7132.9999l-1.7356-.5312c-.4753-.1451-.9193-.1451-1.3947 0l-1.7356.5312c-1.04038.3178-2.11902-.0801-2.7132-.9999l-.99321-1.536c-.27144-.4201-.61213-.7095-1.06729-.9069l-1.66831-.7228c-.99804-.4326-1.57182-1.4402-1.44405-2.5314l.21547-1.8227c.06046-.4986-.01794-.9418-.2422-1.3897l-.81616-1.6382c-.49102-.9809-.29154-2.1264.50003-2.8788l1.32298-1.25618c.36097-.34359.58288-.73329.69738-1.22218l.41264-1.787c.24885-1.07021 1.12797-1.81801 2.21304-1.87906l1.8095-.10187c.49571-.02797.91246-.18179 1.30952-.48272l1.45326-1.09996c.8676-.658305 2.0177-.6583 2.8877.00019zm-2.4333 11.61218 1.8282-1.8853 1.8283-1.88524c.4328-.44597 1.1383-.44714 1.5736-.00488.4379.44226.4379 1.16132.0048 1.60672-1.4828 1.5278-2.9535 3.0656-4.4433 4.5863-.4351.4446-1.1433.4446-1.5785 0l-2.47051-2.5231c-.43513-.4446-.43513-1.1656 0-1.6106.43513-.4442 1.14063-.4442 1.57616 0z"/><path d="m5.85601 23.5308.15728.2432c1.00558 1.5567 2.87325 2.2532 4.65401 1.7092l.0009-.0003.6325-.1935-1.73173 6.4627c-.11495.429-.65401.5686-.96275.2493l-1.61456-1.6698-2.23314.6388c-.42704.1222-.82408-.2682-.70912-.6973zm7.65859 1.6412 1.016.3109c1.7258.5283 3.5373-.1116 4.5622-1.5712l1.7045 6.3614c.115.4291-.2821.8195-.7091.6973l-2.2331-.6388-1.6146 1.6698c-.3087.3193-.8478.1797-.9627-.2493z"/></g><path d="m39.1835 7.88357c-.036-1.656-1.26-2.928-3.312-2.928-2.22 0-3.432 1.536-3.432 3.684v1.332c0 2.05203 1.152 3.72003 3.492 3.72003 2.148 0 3.336-1.404 3.336-3.336v-.88803h-3.252v.78003h2.352v.216c0 1.62-.924 2.472-2.424 2.472-1.824 0-2.568-1.284-2.568-2.94003v-1.392c0-1.68.78-2.868 2.508-2.868 1.512 0 2.376.972 2.412 2.148z"/><path d="m43.4913 13.6676c1.284 0 2.304-.78 2.508-1.884h-.816c-.204.696-.768 1.188-1.692 1.188-1.284 0-1.836-.864-1.836-1.932v-.216h4.404v-.91203c0-1.512-.852-2.676-2.604-2.676-1.728 0-2.676 1.104-2.676 2.77203v.984c0 1.656 1.116 2.676 2.712 2.676zm-1.836-3.73203c0-1.128.48-2.004 1.8-2.004 1.2 0 1.752.816 1.752 1.908v.28803h-3.552z"/><path d="m47.7238 13.5236h.912v-3.61203c0-1.272.768-1.884 1.776-1.884 1.104 0 1.572.708 1.572 1.752v3.74403h.912v-3.87603c0-1.476-.876-2.412-2.256-2.412-1.068 0-1.764.492-2.052 1.188v-1.044h-.864z"/><path d="m59.8305 7.37957h-.912v3.61203c0 1.272-.768 1.908-1.776 1.908-1.056 0-1.512-.732-1.512-1.776v-3.74403h-.912v3.87603c0 1.476.852 2.412 2.196 2.412 1.068 0 1.764-.492 2.052-1.188v1.044h.864z"/><path d="m61.8346 13.5236h.912v-6.14403h-.912zm-.12-7.76403c0 .324.228.552.576.552s.576-.228.576-.552-.228-.552-.576-.552-.576.228-.576.552z"/><path d="m64.7511 13.5236h.912v-3.61203c0-1.272.768-1.884 1.776-1.884 1.104 0 1.572.708 1.572 1.752v3.74403h.912v-3.87603c0-1.476-.876-2.412-2.256-2.412-1.068 0-1.764.492-2.052 1.188v-1.044h-.864z"/><path d="m74.2178 13.6676c1.284 0 2.304-.78 2.508-1.884h-.816c-.204.696-.768 1.188-1.692 1.188-1.284 0-1.836-.864-1.836-1.932v-.216h4.404v-.91203c0-1.512-.852-2.676-2.604-2.676-1.728 0-2.676 1.104-2.676 2.77203v.984c0 1.656 1.116 2.676 2.712 2.676zm-1.836-3.73203c0-1.128.48-2.004 1.8-2.004 1.2 0 1.752.816 1.752 1.908v.28803h-3.552z"/><path d="m39.7595 20.7116c0-2.136-1.272-3.756-3.744-3.756-2.46 0-3.744 1.62-3.744 3.756v1.224c0 2.136 1.284 3.756 3.744 3.756.48 0 .912-.06 1.308-.168l.684 1.044 1.176-.768-.624-.936c.792-.672 1.2-1.716 1.2-2.928zm-3.744 3.588c-1.404 0-2.064-.948-2.064-2.28v-1.392c0-1.332.66-2.28 2.064-2.28s2.064.948 2.064 2.28v1.392c0 .6-.132 1.128-.408 1.512l-.672-1.008-1.164.72.66 1.02c-.144.024-.312.036-.48.036z"/><path d="m46.7354 19.2836h-1.632v3.756c0 .78-.432 1.26-1.188 1.26-.732 0-1.104-.456-1.104-1.248v-3.768h-1.632v3.996c0 1.416.78 2.388 2.184 2.388.804 0 1.524-.36 1.812-.888v.744h1.56z"/><path d="m50.441 25.6676c.72 0 1.512-.3 1.8-.72v.576h1.572v-3.984c0-1.452-1.068-2.4-2.628-2.4-1.344 0-2.316.648-2.676 1.86h1.512c.168-.336.516-.588 1.08-.588.672 0 1.08.432 1.08 1.008v.852c-.288-.24-.84-.528-1.584-.528-1.5 0-2.52.624-2.52 1.98 0 1.212.96 1.944 2.364 1.944zm.42-1.08c-.684 0-1.2-.336-1.2-.912s.48-.888 1.248-.888c.732 0 1.272.324 1.272.876 0 .528-.6.924-1.32.924z"/><path d="m55.3965 25.5236h1.632v-8.76h-1.632z"/><path d="m58.7129 25.5236h1.632v-6.24h-1.632zm-.132-7.872c0 .54.396.948.948.948s.948-.408.948-.948-.396-.948-.948-.948-.948.408-.948.948z"/><path d="m64.1653 25.5236h1.128v-1.32h-.66c-.432 0-.588-.168-.588-.576v-3.024h1.332v-1.32h-1.332v-1.704h-1.644v1.704h-.888v1.32h.888v3.144c0 1.104.564 1.776 1.764 1.776z"/><path d="m69.1645 27.6116 2.724-8.328h-1.62l-1.272 4.476-1.344-4.476h-1.632l2.16 6.216-.624 2.112z"/></g></svg>