<svg fill="none" height="33" viewBox="0 0 91 33" width="91" xmlns="http://www.w3.org/2000/svg" xmlns:xlink="http://www.w3.org/1999/xlink"><clipPath id="a"><path d="m.599609.523438h90v32h-90z"/></clipPath><clipPath id="b"><path d="m1.45703 1.09473h26.6494v30.8571h-26.6494z"/></clipPath><g clip-path="url(#a)" fill="#999"><g clip-path="url(#b)"><path d="m28.0949 7.71148c-3.3325-.54-5.767-3.28909-5.753-6.50104v-.11571h-15.11891v.1122c0 3.21546-2.42044 5.96104-5.75643 6.50806-.40341 17.22391 9.94134 22.92191 12.66694 24.11411.201.0888.4197.1302.6393.1211s.4341-.0685.6271-.1737c2.6554-1.4341 12.9791-8.0649 12.6985-24.06151zm-13.33 15.91242c-1.5999-.0124-3.1603-.498-4.4845-1.3956-1.32427-.8976-2.35304-2.167-2.95668-3.6481s-.75513-3.1078-.43538-4.6748c.31976-1.5671 1.09645-3.0045 2.23218-4.13096 1.13568-1.1265 2.57968-1.8917 4.14978-2.19916s3.1961-.14341 4.6731.47147 2.7389 1.65307 3.6265 2.98375c.8876 1.3306 1.3613 2.8941 1.3614 4.4934-.0102 2.1537-.874 4.2154-2.402 5.7337-1.5281 1.5182-3.5959 2.3692-5.7503 2.3663z"/><path d="m14.3865 18.3294c-.1046.1042-.2295.1859-.3669.24s-.2844.0795-.432.0745c-.1476-.0049-.2927-.04-.4261-.1032-.1335-.0631-.2527-.153-.35-.2639l-1.8171-2.1039c-.0327-.0379-.0576-.0819-.0732-.1295-.0156-.0475-.0216-.0977-.0177-.1476s.0177-.0985.0405-.143.0543-.0841.0925-.1164l1.0523-.8942c.0762-.0638.1744-.0952.2735-.0873.0991.0078.1911.0543.2562.1294l.7928.9117c.0352.0385.078.0692.1257.0902.0477.0211.0993.0319.1514.0319.0522 0 .1037-.0108.1515-.0319.0477-.021.0905-.0517.1256-.0902l3.0554-3.0717c.0709-.0702.1668-.1097.2666-.1097.0999 0 .1957.0395.2666.1097l.9927.9608c.0354.0351.0634.077.0825.123s.029.0954.029.1452c0 .0499-.0099.0992-.029.1452-.0191.0461-.0471.0879-.0825.1231z"/></g><path d="m38.8879 14.6916c1.788 0 3.12-.948 3.12-2.484 0-1.08-.732-1.764-1.764-2.04l-2.436-.64803c-.72-.192-1.044-.588-1.044-1.284 0-.996.828-1.536 2.004-1.536 1.296 0 2.064.684 2.064 1.68v.18h.876v-.204c0-1.428-1.212-2.4-2.94-2.4s-2.904.864-2.904 2.352c0 .96.456 1.668 1.668 1.98003l2.376.624c.78.204 1.2.684 1.2 1.368 0 1.068-.84 1.668-2.22 1.668-1.392 0-2.244-.72-2.244-1.776v-.192h-.888v.216c0 1.536 1.344 2.496 3.132 2.496z"/><path d="m46.1283 14.6676c1.284 0 2.304-.78 2.508-1.884h-.816c-.204.696-.768 1.188-1.692 1.188-1.284 0-1.836-.864-1.836-1.932v-.216h4.404v-.912c0-1.51203-.852-2.67603-2.604-2.67603-1.728 0-2.676 1.104-2.676 2.77203v.984c0 1.656 1.116 2.676 2.712 2.676zm-1.836-3.732c0-1.12803.48-2.00403 1.8-2.00403 1.2 0 1.752.816 1.752 1.90803v.288h-3.552z"/><path d="m52.7848 14.6676c1.548 0 2.556-1.008 2.628-2.304h-.816c-.12.828-.636 1.584-1.8 1.584-1.26 0-1.848-.816-1.848-1.968v-1.056c0-1.15203.588-1.96803 1.848-1.96803 1.164 0 1.68.756 1.8 1.58403h.816c-.072-1.29603-1.08-2.30403-2.628-2.30403-1.704 0-2.724 1.152-2.724 2.70003v1.032c0 1.548 1.02 2.7 2.724 2.7z"/><path d="m62.1276 8.37957h-.912v3.61203c0 1.272-.768 1.908-1.776 1.908-1.056 0-1.512-.732-1.512-1.776v-3.74403h-.912v3.87603c0 1.476.852 2.412 2.196 2.412 1.068 0 1.764-.492 2.052-1.188v1.044h.864z"/><path d="m64.0717 14.5236h.912v-3.012c0-1.54803.744-2.31603 1.908-2.31603h.18v-.852h-.144c-1.116 0-1.776.504-2.004 1.452v-1.416h-.852z"/><path d="m70.6205 14.6676c1.284 0 2.304-.78 2.508-1.884h-.816c-.204.696-.768 1.188-1.692 1.188-1.284 0-1.836-.864-1.836-1.932v-.216h4.404v-.912c0-1.51203-.852-2.67603-2.604-2.67603-1.728 0-2.676 1.104-2.676 2.77203v.984c0 1.656 1.116 2.676 2.712 2.676zm-1.836-3.732c0-1.12803.48-2.00403 1.8-2.00403 1.2 0 1.752.816 1.752 1.90803v.288h-3.552z"/><path d="m39.2716 26.6917c2.124 0 3.432-1.44 3.516-3.156h-1.56c-.108.948-.708 1.776-1.956 1.776-1.404 0-2.004-.96-2.004-2.304v-1.368c0-1.344.6-2.304 2.004-2.304 1.248 0 1.848.828 1.956 1.776h1.56c-.084-1.716-1.392-3.156-3.516-3.156-2.532 0-3.672 1.62-3.672 3.768v1.2c0 2.148 1.14 3.768 3.672 3.768z"/><path d="m44.2043 26.5237h1.632v-3.696c0-.84.468-1.272 1.2-1.272.792 0 1.14.516 1.14 1.236v3.732h1.632v-3.996c0-1.476-.852-2.388-2.208-2.388-.804 0-1.44.348-1.764.888v-3.264h-1.632z"/><path d="m53.9807 26.6677c1.38 0 2.496-.828 2.712-1.968h-1.428c-.156.432-.588.792-1.284.792-.948 0-1.32-.636-1.32-1.368v-.156h4.08v-1.092c0-1.5-.936-2.736-2.784-2.736-1.872 0-2.88 1.2-2.88 2.892v.852c0 1.752 1.14 2.784 2.904 2.784zm-1.32-3.912c0-.84.36-1.464 1.296-1.464.876 0 1.284.588 1.284 1.368v.156h-2.58z"/><path d="m60.7435 26.6677c1.668 0 2.796-1.044 2.844-2.472h-1.488c-.072.612-.456 1.152-1.32 1.152-.924 0-1.356-.6-1.356-1.44v-1.008c0-.84.432-1.44 1.356-1.44.864 0 1.248.54 1.32 1.152h1.488c-.048-1.428-1.176-2.472-2.844-2.472-1.884 0-2.952 1.188-2.952 2.82v.888c0 1.632 1.068 2.82 2.952 2.82z"/><path d="m64.923 26.5237h1.632v-3.048l2.052 3.048h1.86l-2.22-3.192 2.148-3.048h-1.86l-1.98 2.904v-5.424h-1.632z"/><path d="m73.88 26.6677c1.872 0 2.94-1.224 2.94-2.82v-.888c0-1.596-1.068-2.82-2.94-2.82s-2.94 1.224-2.94 2.82v.888c0 1.596 1.068 2.82 2.94 2.82zm1.356-2.712c0 .816-.432 1.428-1.356 1.428s-1.356-.612-1.356-1.428v-1.104c0-.816.432-1.428 1.356-1.428s1.356.612 1.356 1.428z"/><path d="m83.6495 20.2837h-1.632v3.756c0 .78-.432 1.26-1.188 1.26-.732 0-1.104-.456-1.104-1.248v-3.768h-1.632v3.996c0 1.416.78 2.388 2.184 2.388.804 0 1.524-.36 1.812-.888v.744h1.56z"/><path d="m87.427 26.5237h1.128v-1.32h-.66c-.432 0-.588-.168-.588-.576v-3.024h1.332v-1.32h-1.332v-1.704h-1.644v1.704h-.888v1.32h.888v3.144c0 1.104.564 1.776 1.764 1.776z"/></g></svg>